<mxfile host="app.diagrams.net" modified="2024-01-02T09:29:46.832Z" agent="Mozilla/5.0 (Windows NT 10.0; Win64; x64) AppleWebKit/537.36 (KHTML, like Gecko) Chrome/120.0.0.0 Safari/537.36" etag="22t0WTrPS-ze8GflBm3W" version="22.1.16" type="github">
  <diagram name="第 1 页" id="F-e15e70pxeCKfSHy69d">
    <mxGraphModel dx="683" dy="355" grid="1" gridSize="10" guides="1" tooltips="1" connect="1" arrows="1" fold="1" page="1" pageScale="1" pageWidth="827" pageHeight="1169" math="0" shadow="0">
      <root>
        <mxCell id="0" />
        <mxCell id="1" parent="0" />
        <mxCell id="lNZ20axD3Gg1a9wsW54W-4" value="人员定位消息" style="rounded=0;whiteSpace=wrap;html=1;" vertex="1" parent="1">
          <mxGeometry x="520" y="690" width="90" height="30" as="geometry" />
        </mxCell>
        <mxCell id="lNZ20axD3Gg1a9wsW54W-6" value="消息消费" style="rounded=0;whiteSpace=wrap;html=1;" vertex="1" parent="1">
          <mxGeometry x="400" y="690" width="70" height="30" as="geometry" />
        </mxCell>
        <mxCell id="lNZ20axD3Gg1a9wsW54W-7" value="" style="rounded=0;whiteSpace=wrap;html=1;" vertex="1" parent="1">
          <mxGeometry x="400" y="740" width="70" height="90" as="geometry" />
        </mxCell>
        <mxCell id="lNZ20axD3Gg1a9wsW54W-9" value="&lt;font style=&quot;font-size: 9px;&quot;&gt;规则读取&lt;/font&gt;" style="rounded=0;whiteSpace=wrap;html=1;" vertex="1" parent="1">
          <mxGeometry x="410" y="750" width="50" height="20" as="geometry" />
        </mxCell>
        <mxCell id="lNZ20axD3Gg1a9wsW54W-10" value="&lt;font style=&quot;font-size: 9px;&quot;&gt;规则解析&lt;/font&gt;" style="rounded=0;whiteSpace=wrap;html=1;" vertex="1" parent="1">
          <mxGeometry x="410" y="775" width="50" height="20" as="geometry" />
        </mxCell>
        <mxCell id="lNZ20axD3Gg1a9wsW54W-11" value="&lt;font style=&quot;font-size: 9px;&quot;&gt;规则缓存&lt;/font&gt;" style="rounded=0;whiteSpace=wrap;html=1;" vertex="1" parent="1">
          <mxGeometry x="410" y="800" width="50" height="20" as="geometry" />
        </mxCell>
        <mxCell id="lNZ20axD3Gg1a9wsW54W-13" value="" style="rounded=0;whiteSpace=wrap;html=1;" vertex="1" parent="1">
          <mxGeometry x="400" y="850" width="70" height="70" as="geometry" />
        </mxCell>
        <mxCell id="lNZ20axD3Gg1a9wsW54W-15" value="&lt;font style=&quot;font-size: 8px;&quot;&gt;有效期过滤&lt;/font&gt;" style="rounded=0;whiteSpace=wrap;html=1;" vertex="1" parent="1">
          <mxGeometry x="410" y="860" width="50" height="20" as="geometry" />
        </mxCell>
        <mxCell id="lNZ20axD3Gg1a9wsW54W-17" value="&lt;font style=&quot;font-size: 9px;&quot;&gt;时间过滤&lt;/font&gt;" style="rounded=0;whiteSpace=wrap;html=1;" vertex="1" parent="1">
          <mxGeometry x="410" y="890" width="50" height="20" as="geometry" />
        </mxCell>
        <mxCell id="lNZ20axD3Gg1a9wsW54W-19" value="类型分发" style="rounded=0;whiteSpace=wrap;html=1;" vertex="1" parent="1">
          <mxGeometry x="400" y="940" width="70" height="20" as="geometry" />
        </mxCell>
        <mxCell id="lNZ20axD3Gg1a9wsW54W-20" value="" style="rounded=0;whiteSpace=wrap;html=1;" vertex="1" parent="1">
          <mxGeometry x="290" y="840" width="70" height="120" as="geometry" />
        </mxCell>
        <mxCell id="lNZ20axD3Gg1a9wsW54W-21" value="进围栏" style="rounded=0;whiteSpace=wrap;html=1;" vertex="1" parent="1">
          <mxGeometry x="300" y="850" width="50" height="20" as="geometry" />
        </mxCell>
        <mxCell id="lNZ20axD3Gg1a9wsW54W-22" value="出围栏" style="rounded=0;whiteSpace=wrap;html=1;" vertex="1" parent="1">
          <mxGeometry x="300" y="880" width="50" height="20" as="geometry" />
        </mxCell>
        <mxCell id="lNZ20axD3Gg1a9wsW54W-23" value="&lt;font style=&quot;font-size: 10px;&quot;&gt;进出围栏&lt;/font&gt;" style="rounded=0;whiteSpace=wrap;html=1;" vertex="1" parent="1">
          <mxGeometry x="300" y="910" width="50" height="20" as="geometry" />
        </mxCell>
        <mxCell id="lNZ20axD3Gg1a9wsW54W-24" value="&lt;font style=&quot;font-size: 10px;&quot;&gt;最长驻停&lt;/font&gt;" style="rounded=0;whiteSpace=wrap;html=1;" vertex="1" parent="1">
          <mxGeometry x="300" y="935" width="50" height="20" as="geometry" />
        </mxCell>
        <mxCell id="lNZ20axD3Gg1a9wsW54W-25" value="" style="rounded=0;whiteSpace=wrap;html=1;" vertex="1" parent="1">
          <mxGeometry x="290" y="690" width="70" height="70" as="geometry" />
        </mxCell>
        <mxCell id="lNZ20axD3Gg1a9wsW54W-26" value="&lt;font style=&quot;font-size: 6px;&quot;&gt;围栏事件统一出入口&lt;/font&gt;" style="rounded=0;whiteSpace=wrap;html=1;" vertex="1" parent="1">
          <mxGeometry x="295" y="700" width="60" height="20" as="geometry" />
        </mxCell>
        <mxCell id="lNZ20axD3Gg1a9wsW54W-28" value="&lt;span style=&quot;font-size: 6px;&quot;&gt;统一事件消息体&lt;/span&gt;" style="rounded=0;whiteSpace=wrap;html=1;" vertex="1" parent="1">
          <mxGeometry x="295" y="730" width="60" height="20" as="geometry" />
        </mxCell>
        <mxCell id="lNZ20axD3Gg1a9wsW54W-29" value="事件处理1" style="rounded=0;whiteSpace=wrap;html=1;" vertex="1" parent="1">
          <mxGeometry x="140" y="695" width="70" height="35" as="geometry" />
        </mxCell>
        <mxCell id="lNZ20axD3Gg1a9wsW54W-30" value="事件处理N" style="rounded=0;whiteSpace=wrap;html=1;" vertex="1" parent="1">
          <mxGeometry x="140" y="925" width="70" height="35" as="geometry" />
        </mxCell>
        <mxCell id="lNZ20axD3Gg1a9wsW54W-31" value="事件处理2" style="rounded=0;whiteSpace=wrap;html=1;" vertex="1" parent="1">
          <mxGeometry x="140" y="750" width="70" height="35" as="geometry" />
        </mxCell>
        <mxCell id="lNZ20axD3Gg1a9wsW54W-32" value="" style="endArrow=classic;html=1;rounded=0;exitX=0;exitY=0.25;exitDx=0;exitDy=0;" edge="1" parent="1" source="lNZ20axD3Gg1a9wsW54W-25">
          <mxGeometry width="50" height="50" relative="1" as="geometry">
            <mxPoint x="190" y="860" as="sourcePoint" />
            <mxPoint x="210" y="710" as="targetPoint" />
          </mxGeometry>
        </mxCell>
        <mxCell id="lNZ20axD3Gg1a9wsW54W-33" value="" style="endArrow=classic;html=1;rounded=0;exitX=0;exitY=0.429;exitDx=0;exitDy=0;exitPerimeter=0;" edge="1" parent="1" source="lNZ20axD3Gg1a9wsW54W-25">
          <mxGeometry width="50" height="50" relative="1" as="geometry">
            <mxPoint x="230" y="780" as="sourcePoint" />
            <mxPoint x="210" y="770" as="targetPoint" />
          </mxGeometry>
        </mxCell>
        <mxCell id="lNZ20axD3Gg1a9wsW54W-34" value="" style="endArrow=classic;html=1;rounded=0;exitX=0.005;exitY=0.648;exitDx=0;exitDy=0;exitPerimeter=0;entryX=0.942;entryY=0.027;entryDx=0;entryDy=0;entryPerimeter=0;" edge="1" parent="1" source="lNZ20axD3Gg1a9wsW54W-25" target="lNZ20axD3Gg1a9wsW54W-30">
          <mxGeometry width="50" height="50" relative="1" as="geometry">
            <mxPoint x="250" y="820" as="sourcePoint" />
            <mxPoint x="300" y="770" as="targetPoint" />
          </mxGeometry>
        </mxCell>
        <mxCell id="lNZ20axD3Gg1a9wsW54W-37" value="" style="endArrow=classic;html=1;rounded=0;exitX=0;exitY=0.5;exitDx=0;exitDy=0;" edge="1" parent="1" source="lNZ20axD3Gg1a9wsW54W-4" target="lNZ20axD3Gg1a9wsW54W-6">
          <mxGeometry width="50" height="50" relative="1" as="geometry">
            <mxPoint x="490" y="810" as="sourcePoint" />
            <mxPoint x="540" y="760" as="targetPoint" />
          </mxGeometry>
        </mxCell>
        <mxCell id="lNZ20axD3Gg1a9wsW54W-38" value="" style="endArrow=classic;html=1;rounded=0;exitX=0.5;exitY=1;exitDx=0;exitDy=0;entryX=0.5;entryY=0;entryDx=0;entryDy=0;" edge="1" parent="1" source="lNZ20axD3Gg1a9wsW54W-6" target="lNZ20axD3Gg1a9wsW54W-7">
          <mxGeometry width="50" height="50" relative="1" as="geometry">
            <mxPoint x="490" y="780" as="sourcePoint" />
            <mxPoint x="540" y="730" as="targetPoint" />
          </mxGeometry>
        </mxCell>
        <mxCell id="lNZ20axD3Gg1a9wsW54W-39" value="" style="endArrow=classic;html=1;rounded=0;exitX=0.5;exitY=1;exitDx=0;exitDy=0;entryX=0.5;entryY=0;entryDx=0;entryDy=0;" edge="1" parent="1" source="lNZ20axD3Gg1a9wsW54W-7" target="lNZ20axD3Gg1a9wsW54W-13">
          <mxGeometry width="50" height="50" relative="1" as="geometry">
            <mxPoint x="490" y="850" as="sourcePoint" />
            <mxPoint x="540" y="800" as="targetPoint" />
          </mxGeometry>
        </mxCell>
        <mxCell id="lNZ20axD3Gg1a9wsW54W-40" value="" style="endArrow=classic;html=1;rounded=0;exitX=0.5;exitY=1;exitDx=0;exitDy=0;" edge="1" parent="1" source="lNZ20axD3Gg1a9wsW54W-13" target="lNZ20axD3Gg1a9wsW54W-19">
          <mxGeometry width="50" height="50" relative="1" as="geometry">
            <mxPoint x="480" y="940" as="sourcePoint" />
            <mxPoint x="530" y="890" as="targetPoint" />
          </mxGeometry>
        </mxCell>
        <mxCell id="lNZ20axD3Gg1a9wsW54W-41" value="" style="endArrow=classic;html=1;rounded=0;exitX=0;exitY=0.5;exitDx=0;exitDy=0;entryX=1.003;entryY=0.917;entryDx=0;entryDy=0;entryPerimeter=0;" edge="1" parent="1" source="lNZ20axD3Gg1a9wsW54W-19" target="lNZ20axD3Gg1a9wsW54W-20">
          <mxGeometry width="50" height="50" relative="1" as="geometry">
            <mxPoint x="350" y="1030" as="sourcePoint" />
            <mxPoint x="400" y="980" as="targetPoint" />
          </mxGeometry>
        </mxCell>
        <mxCell id="lNZ20axD3Gg1a9wsW54W-42" value="" style="endArrow=classic;html=1;rounded=0;entryX=0.441;entryY=1.001;entryDx=0;entryDy=0;entryPerimeter=0;" edge="1" parent="1" target="lNZ20axD3Gg1a9wsW54W-25">
          <mxGeometry width="50" height="50" relative="1" as="geometry">
            <mxPoint x="320" y="840" as="sourcePoint" />
            <mxPoint x="370" y="790" as="targetPoint" />
          </mxGeometry>
        </mxCell>
      </root>
    </mxGraphModel>
  </diagram>
</mxfile>
